<?xml version="1.0" encoding="utf-8"?>
<!-- Generator: Adobe Illustrator 26.2.1, SVG Export Plug-In . SVG Version: 6.00 Build 0)  -->
<svg version="1.1" id="Icons" xmlns="http://www.w3.org/2000/svg" xmlns:xlink="http://www.w3.org/1999/xlink" x="0px" y="0px"
	 viewBox="0 0 32 32" style="enable-background:new 0 0 32 32;" xml:space="preserve">
<style type="text/css">
	.st0{fill:#FFFFFF;}
</style>
<g>
	<path class="st0" d="M22,14c2.8,0,5-2.2,5-5s-2.2-5-5-5s-5,2.2-5,5S19.2,14,22,14z"/>
	<path class="st0" d="M22,3c0.6,0,1-0.4,1-1V1c0-0.6-0.4-1-1-1s-1,0.4-1,1v1C21,2.6,21.4,3,22,3z"/>
	<path class="st0" d="M14.6,5.9l0.9,0.5c0.2,0.1,0.3,0.1,0.5,0.1c0.3,0,0.7-0.2,0.9-0.5c0.3-0.5,0.1-1.1-0.4-1.4l-0.9-0.5
		c-0.5-0.3-1.1-0.1-1.4,0.4C13.9,5,14.1,5.6,14.6,5.9z"/>
	<path class="st0" d="M27.6,13.4l0.9,0.5C28.7,14,28.8,14,29,14c0.3,0,0.7-0.2,0.9-0.5c0.3-0.5,0.1-1.1-0.4-1.4l-0.9-0.5
		c-0.5-0.3-1.1-0.1-1.4,0.4C26.9,12.5,27.1,13.1,27.6,13.4z"/>
	<path class="st0" d="M28.1,6.5c0.2,0,0.3,0,0.5-0.1l0.9-0.5C30,5.6,30.1,5,29.9,4.5C29.6,4,29,3.9,28.5,4.1l-0.9,0.5
		C27.1,4.9,27,5.5,27.2,6C27.4,6.3,27.7,6.5,28.1,6.5z"/>
	<path class="st0" d="M31,22h-2.8l-0.7-0.3c-2.5-1-4.4-2.8-5.6-5.2c-0.1-0.2-0.3-0.4-0.6-0.5l-6-2c-0.3-0.1-0.6,0-0.9,0.1L3.7,22H1
		c-0.6,0-1,0.4-1,1s0.4,1,1,1h27l0,0l0,0h3c0.6,0,1-0.4,1-1S31.6,22,31,22z"/>
	<path class="st0" d="M27,26H5c-0.6,0-1,0.4-1,1s0.4,1,1,1h22c0.6,0,1-0.4,1-1S27.6,26,27,26z"/>
	<path class="st0" d="M22,30H10c-0.6,0-1,0.4-1,1s0.4,1,1,1h12c0.6,0,1-0.4,1-1S22.6,30,22,30z"/>
</g>
</svg>
