<?xml version="1.0" encoding="utf-8"?>
<!-- Generator: Adobe Illustrator 26.2.1, SVG Export Plug-In . SVG Version: 6.00 Build 0)  -->
<svg version="1.1" id="Layer_1" xmlns="http://www.w3.org/2000/svg" xmlns:xlink="http://www.w3.org/1999/xlink" x="0px" y="0px"
	 viewBox="0 0 150 150" style="enable-background:new 0 0 150 150;" xml:space="preserve">
<style type="text/css">
	.st0{fill:#FFFFFF;}
</style>
<g id="XMLID_240_">
	<path id="XMLID_241_" class="st0" d="M15,30h120c8.3,0,15-6.7,15-15s-6.7-15-15-15H15C6.7,0,0,6.7,0,15S6.7,30,15,30z"/>
	<path id="XMLID_242_" class="st0" d="M135,60H15C6.7,60,0,66.7,0,75s6.7,15,15,15h120c8.3,0,15-6.7,15-15S143.3,60,135,60z"/>
	<path id="XMLID_243_" class="st0" d="M135,120H15c-8.3,0-15,6.7-15,15s6.7,15,15,15h120c8.3,0,15-6.7,15-15S143.3,120,135,120z"/>
</g>
</svg>
